<?xml version="1.0" encoding="UTF-8"?>
<svg version="1.1" xmlns="http://www.w3.org/2000/svg" width="1024" height="1024">
<path d="M0 0 C337.92 0 675.84 0 1024 0 C1024 337.92 1024 675.84 1024 1024 C686.08 1024 348.16 1024 0 1024 C0 686.08 0 348.16 0 0 Z " fill="transparent" transform="translate(0,0)"/>
<path d="M0 0 C1.18160706 0.00848969 2.36321411 0.01697937 3.58062744 0.02572632 C7.30993551 0.05898897 11.03698392 0.13422245 14.765625 0.2109375 C17.31246851 0.24107191 19.85934632 0.26844156 22.40625 0.29296875 C28.61013022 0.3586911 34.81271612 0.45876489 41.015625 0.5859375 C41.0249707 1.81634766 41.03431641 3.04675781 41.04394531 4.31445312 C41.08400725 8.90693528 41.14981066 13.49875892 41.22314453 18.09082031 C41.25126047 20.07315572 41.27252138 22.05560129 41.28662109 24.03808594 C41.30818092 26.89835625 41.35489715 29.7573152 41.40625 32.6171875 C41.40747864 33.49459595 41.40870728 34.37200439 41.40997314 35.27600098 C41.56594328 41.92233601 43.05257338 47.58465295 47.83203125 52.42578125 C48.40824219 52.78800781 48.98445313 53.15023437 49.578125 53.5234375 C50.15691406 53.90371094 50.73570312 54.28398437 51.33203125 54.67578125 C57.84930035 58.19903809 67.76826999 57.49073361 74.89453125 55.97265625 C80.65955526 53.75834077 83.47312904 50.11359613 86.015625 44.5859375 C87.32483003 40.6583224 87.25025368 36.86023119 87.33203125 32.76171875 C87.3632029 31.46961739 87.3632029 31.46961739 87.39500427 30.15141296 C87.46037409 27.40050206 87.51932632 24.64949594 87.578125 21.8984375 C87.62132217 20.03319329 87.66493685 18.1679587 87.70898438 16.30273438 C87.81604263 11.73056626 87.91734554 7.1583024 88.015625 2.5859375 C100.92993134 5.36172591 100.92993134 5.36172591 106.94970703 7.78222656 C111.53600945 9.56645104 116.26521138 10.96994429 120.953125 12.4609375 C122.06558594 12.81534912 123.17804688 13.16976074 124.32421875 13.53491211 C133.18708232 16.34622987 142.07233184 19.04332484 151.015625 21.5859375 C152.02286621 21.87388184 153.03010742 22.16182617 154.06787109 22.45849609 C157.44497896 23.42232436 160.82373515 24.38014311 164.203125 25.3359375 C165.27949219 25.64217041 166.35585938 25.94840332 167.46484375 26.26391602 C168.48578125 26.55065186 169.50671875 26.8373877 170.55859375 27.1328125 C171.9202063 27.51711426 171.9202063 27.51711426 173.30932617 27.90917969 C191.78559025 32.52949579 209.2228398 26.60891508 226.83203125 21.16796875 C233.14252304 19.2222841 239.49939624 17.44294017 245.86254883 15.67822266 C250.39603731 14.40333236 254.7963152 12.97400301 259.18847656 11.27563477 C261.84405123 10.27322984 264.54666433 9.46063985 267.265625 8.6484375 C272.76940486 6.98510146 278.21624657 5.19234597 283.65234375 3.3203125 C286.015625 2.5859375 286.015625 2.5859375 288.015625 2.5859375 C288.0249707 3.68993896 288.03431641 4.79394043 288.04394531 5.93139648 C288.08409638 10.063629 288.14992237 14.19513649 288.22314453 18.3269043 C288.2512095 20.10838441 288.27249539 21.88998569 288.28662109 23.67163086 C287.91984764 38.44291101 287.91984764 38.44291101 294.46191406 51.14208984 C300.95750049 56.91707853 306.80619197 57.02490312 315.0859375 56.828125 C321.666754 56.42254784 325.87186406 55.16211035 330.390625 50.1484375 C333.40373413 46.38625934 335.24617586 43.16212337 335.33447266 38.27636719 C335.35434235 37.43579773 335.37421204 36.59522827 335.39468384 35.72918701 C335.40623505 34.83113342 335.41778625 33.93307983 335.4296875 33.0078125 C335.44905365 32.0812384 335.4684198 31.15466431 335.4883728 30.20001221 C335.54807267 27.24541379 335.59451568 24.29077621 335.640625 21.3359375 C335.6788136 19.33071233 335.71786585 17.32550341 335.7578125 15.3203125 C335.8537664 10.40898639 335.93783303 5.4975835 336.015625 0.5859375 C343.48605837 0.43277799 350.95608133 0.32830117 358.42773438 0.25634766 C360.96499766 0.2263266 363.50215851 0.1854964 366.0390625 0.13330078 C369.7033833 0.05984152 373.36632267 0.026332 377.03125 0 C378.15049866 -0.03096771 379.26974731 -0.06193542 380.4229126 -0.09384155 C390.07218432 -0.09788975 397.70430364 3.2171653 405.453125 8.8984375 C408.80711288 12.41603455 410.94744815 16.20979518 413.015625 20.5859375 C413.36248446 21.25560484 413.70934393 21.92527218 414.06671429 22.61523247 C415.43141377 26.88762562 415.29444955 30.93925617 415.27632141 35.39846802 C415.28014696 36.39388827 415.28397251 37.38930853 415.28791398 38.41489303 C415.29824272 41.75467623 415.29425186 45.09428745 415.2902832 48.43408203 C415.29463008 50.82760782 415.29981315 53.22113222 415.30577087 55.61465454 C415.31778926 61.44706068 415.32031043 67.27941323 415.31797061 73.11183025 C415.31618569 77.86031386 415.31794086 82.60878353 415.32219505 87.35726547 C415.32279024 88.03384115 415.32338543 88.71041683 415.32399866 89.40749481 C415.32521049 90.78224024 415.32642462 92.15698568 415.32764103 93.53173111 C415.33852129 106.43038533 415.33635343 119.32901342 415.33025619 132.2276691 C415.32510244 143.99009339 415.33630067 155.75243446 415.35535441 167.51484229 C415.37480552 179.61640295 415.38297512 191.71792443 415.37923115 203.8195008 C415.37732805 210.60359357 415.37971769 217.38761579 415.39394569 224.17169571 C415.40660769 230.56572057 415.40450131 236.95958076 415.39153481 243.35360336 C415.38918653 245.68706063 415.39184008 248.02052977 415.40015793 250.35397339 C415.45919276 268.21940871 414.43332693 285.43653794 408.515625 302.4609375 C408.17450684 303.45851074 407.83338867 304.45608398 407.48193359 305.48388672 C400.43275141 325.27859157 389.69637028 342.85553413 375.3125 358.1328125 C373.31243586 360.26893542 371.44166338 362.45694347 369.578125 364.7109375 C365.26809086 369.65391371 360.16043317 373.55224627 355.015625 377.5859375 C353.60023438 378.75962891 353.60023438 378.75962891 352.15625 379.95703125 C337.21841253 392.05048775 320.08637464 400.61825769 302.29150391 407.68115234 C300.34038749 408.45682682 298.40127533 409.26257911 296.46484375 410.07421875 C274.47425598 418.7469414 249.82241106 420.89600027 226.39086914 420.8605957 C224.4639008 420.86495327 222.53693419 420.87013986 220.60997009 420.87608337 C215.41984709 420.88937063 210.22979736 420.89006372 205.03966069 420.88752007 C200.68860056 420.88644359 196.33755484 420.89135081 191.98649782 420.8961255 C181.713725 420.90718462 171.44098877 420.90767806 161.16821289 420.90161133 C150.60892218 420.89557086 140.04976469 420.90789275 129.4904967 420.9291814 C120.38682623 420.94685312 111.28319797 420.95279009 102.17951101 420.94954365 C96.75884363 420.94773991 91.33827137 420.95027571 85.91761971 420.96425819 C80.81782106 420.97692344 75.71822883 420.97481101 70.618433 420.96184731 C68.75941139 420.95950099 66.90037484 420.96214534 65.04137039 420.97047043 C34.95317275 421.09537842 9.07304837 412.16045996 -12.859375 391.0859375 C-24.17082009 379.25939928 -31.95247876 364.37183634 -35.984375 348.5859375 C-36.16086694 347.98319228 -36.33735889 347.38044707 -36.51919907 346.75943685 C-37.0757957 344.1587812 -37.11368635 341.76360838 -37.11859608 339.10291672 C-37.12305392 337.98171613 -37.12751176 336.86051555 -37.13210469 335.70533919 C-37.13192033 334.47345311 -37.13173597 333.24156703 -37.13154602 331.97235107 C-37.13522271 330.66375759 -37.1388994 329.35516411 -37.1426875 328.00691628 C-37.15269987 324.37149186 -37.15642305 320.73608395 -37.15907681 317.10064769 C-37.16298205 313.1809575 -37.17256014 309.26128036 -37.18128967 305.34159851 C-37.2010464 295.87485113 -37.21111864 286.40810269 -37.22001746 276.94133985 C-37.22440108 272.4833967 -37.22976765 268.02545473 -37.23500633 263.56751251 C-37.25201674 248.74911114 -37.26651151 233.93071051 -37.27375507 219.11230087 C-37.27566496 215.26741281 -37.2775853 211.42252476 -37.27954102 207.57763672 C-37.28002476 206.62200987 -37.2805085 205.66638301 -37.2810069 204.68179777 C-37.28930949 189.1968555 -37.31465112 173.71199042 -37.34712169 158.22708187 C-37.38018513 142.32990059 -37.39820313 126.43275857 -37.40139931 110.53554273 C-37.40356492 101.60944916 -37.41232112 92.68346821 -37.43786049 83.75740814 C-37.45955759 76.15669884 -37.46762275 68.55612951 -37.45789371 60.95539275 C-37.4533463 57.0779042 -37.45526062 53.20070454 -37.47465515 49.32325554 C-37.49550866 45.11778622 -37.48531047 40.91295867 -37.47212219 36.7074585 C-37.48309144 35.4844953 -37.49406068 34.26153211 -37.50536233 33.00150943 C-37.42832512 22.84199046 -34.53568111 16.25261843 -27.46490479 8.84536743 C-19.37308452 1.47480449 -10.62082253 -0.29386015 0 0 Z " fill="transparent" transform="translate(322.984375,361.4140625)"/>
<path d="M0 0 C1.18160706 0.00848969 2.36321411 0.01697937 3.58062744 0.02572632 C7.30993551 0.05898897 11.03698392 0.13422245 14.765625 0.2109375 C17.31246851 0.24107191 19.85934632 0.26844156 22.40625 0.29296875 C28.61013022 0.3586911 34.81271612 0.45876489 41.015625 0.5859375 C41.0249707 1.81634766 41.03431641 3.04675781 41.04394531 4.31445312 C41.08400725 8.90693528 41.14981066 13.49875892 41.22314453 18.09082031 C41.25126047 20.07315572 41.27252138 22.05560129 41.28662109 24.03808594 C41.30818092 26.89835625 41.35489715 29.7573152 41.40625 32.6171875 C41.40747864 33.49459595 41.40870728 34.37200439 41.40997314 35.27600098 C41.56594328 41.92233601 43.05257338 47.58465295 47.83203125 52.42578125 C48.40824219 52.78800781 48.98445313 53.15023437 49.578125 53.5234375 C50.15691406 53.90371094 50.73570312 54.28398437 51.33203125 54.67578125 C57.84930035 58.19903809 67.76826999 57.49073361 74.89453125 55.97265625 C80.65955526 53.75834077 83.47312904 50.11359613 86.015625 44.5859375 C87.32483003 40.6583224 87.25025368 36.86023119 87.33203125 32.76171875 C87.3632029 31.46961739 87.3632029 31.46961739 87.39500427 30.15141296 C87.46037409 27.40050206 87.51932632 24.64949594 87.578125 21.8984375 C87.62132217 20.03319329 87.66493685 18.1679587 87.70898438 16.30273438 C87.81604263 11.73056626 87.91734554 7.1583024 88.015625 2.5859375 C100.92993134 5.36172591 100.92993134 5.36172591 106.94970703 7.78222656 C111.53600945 9.56645104 116.26521138 10.96994429 120.953125 12.4609375 C122.06558594 12.81534912 123.17804688 13.16976074 124.32421875 13.53491211 C133.18708232 16.34622987 142.07233184 19.04332484 151.015625 21.5859375 C152.02286621 21.87388184 153.03010742 22.16182617 154.06787109 22.45849609 C157.44497896 23.42232436 160.82373515 24.38014311 164.203125 25.3359375 C165.27949219 25.64217041 166.35585938 25.94840332 167.46484375 26.26391602 C168.48578125 26.55065186 169.50671875 26.8373877 170.55859375 27.1328125 C171.9202063 27.51711426 171.9202063 27.51711426 173.30932617 27.90917969 C191.78559025 32.52949579 209.2228398 26.60891508 226.83203125 21.16796875 C233.14252304 19.2222841 239.49939624 17.44294017 245.86254883 15.67822266 C250.39603731 14.40333236 254.7963152 12.97400301 259.18847656 11.27563477 C261.84405123 10.27322984 264.54666433 9.46063985 267.265625 8.6484375 C272.76940486 6.98510146 278.21624657 5.19234597 283.65234375 3.3203125 C286.015625 2.5859375 286.015625 2.5859375 288.015625 2.5859375 C288.0249707 3.68993896 288.03431641 4.79394043 288.04394531 5.93139648 C288.08409638 10.063629 288.14992237 14.19513649 288.22314453 18.3269043 C288.2512095 20.10838441 288.27249539 21.88998569 288.28662109 23.67163086 C287.91984764 38.44291101 287.91984764 38.44291101 294.46191406 51.14208984 C300.95750049 56.91707853 306.80619197 57.02490312 315.0859375 56.828125 C321.666754 56.42254784 325.87186406 55.16211035 330.390625 50.1484375 C333.40373413 46.38625934 335.24617586 43.16212337 335.33447266 38.27636719 C335.35434235 37.43579773 335.37421204 36.59522827 335.39468384 35.72918701 C335.40623505 34.83113342 335.41778625 33.93307983 335.4296875 33.0078125 C335.44905365 32.0812384 335.4684198 31.15466431 335.4883728 30.20001221 C335.54807267 27.24541379 335.59451568 24.29077621 335.640625 21.3359375 C335.6788136 19.33071233 335.71786585 17.32550341 335.7578125 15.3203125 C335.8537664 10.40898639 335.93783303 5.4975835 336.015625 0.5859375 C343.48605837 0.43277799 350.95608133 0.32830117 358.42773438 0.25634766 C360.96499766 0.2263266 363.50215851 0.1854964 366.0390625 0.13330078 C369.7033833 0.05984152 373.36632267 0.026332 377.03125 0 C378.15049866 -0.03096771 379.26974731 -0.06193542 380.4229126 -0.09384155 C390.07218432 -0.09788975 397.70430364 3.2171653 405.453125 8.8984375 C408.80711288 12.41603455 410.94744815 16.20979518 413.015625 20.5859375 C413.36248446 21.25560484 413.70934393 21.92527218 414.06671429 22.61523247 C415.43141377 26.88762562 415.29444955 30.93925617 415.27632141 35.39846802 C415.28014696 36.39388827 415.28397251 37.38930853 415.28791398 38.41489303 C415.29824272 41.75467623 415.29425186 45.09428745 415.2902832 48.43408203 C415.29463008 50.82760782 415.29981315 53.22113222 415.30577087 55.61465454 C415.31778926 61.44706068 415.32031043 67.27941323 415.31797061 73.11183025 C415.31618569 77.86031386 415.31794086 82.60878353 415.32219505 87.35726547 C415.32279024 88.03384115 415.32338543 88.71041683 415.32399866 89.40749481 C415.32521049 90.78224024 415.32642462 92.15698568 415.32764103 93.53173111 C415.33852129 106.43038533 415.33635343 119.32901342 415.33025619 132.2276691 C415.32510244 143.99009339 415.33630067 155.75243446 415.35535441 167.51484229 C415.37480552 179.61640295 415.38297512 191.71792443 415.37923115 203.8195008 C415.37732805 210.60359357 415.37971769 217.38761579 415.39394569 224.17169571 C415.40660769 230.56572057 415.40450131 236.95958076 415.39153481 243.35360336 C415.38918653 245.68706063 415.39184008 248.02052977 415.40015793 250.35397339 C415.45919276 268.21940871 414.43332693 285.43653794 408.515625 302.4609375 C408.17450684 303.45851074 407.83338867 304.45608398 407.48193359 305.48388672 C400.43275141 325.27859157 389.69637028 342.85553413 375.3125 358.1328125 C373.31243586 360.26893542 371.44166338 362.45694347 369.578125 364.7109375 C365.26809086 369.65391371 360.16043317 373.55224627 355.015625 377.5859375 C353.60023438 378.75962891 353.60023438 378.75962891 352.15625 379.95703125 C337.21841253 392.05048775 320.08637464 400.61825769 302.29150391 407.68115234 C300.34038749 408.45682682 298.40127533 409.26257911 296.46484375 410.07421875 C274.47425598 418.7469414 249.82241106 420.89600027 226.39086914 420.8605957 C224.4639008 420.86495327 222.53693419 420.87013986 220.60997009 420.87608337 C215.41984709 420.88937063 210.22979736 420.89006372 205.03966069 420.88752007 C200.68860056 420.88644359 196.33755484 420.89135081 191.98649782 420.8961255 C181.713725 420.90718462 171.44098877 420.90767806 161.16821289 420.90161133 C150.60892218 420.89557086 140.04976469 420.90789275 129.4904967 420.9291814 C120.38682623 420.94685312 111.28319797 420.95279009 102.17951101 420.94954365 C96.75884363 420.94773991 91.33827137 420.95027571 85.91761971 420.96425819 C80.81782106 420.97692344 75.71822883 420.97481101 70.618433 420.96184731 C68.75941139 420.95950099 66.90037484 420.96214534 65.04137039 420.97047043 C34.95317275 421.09537842 9.07304837 412.16045996 -12.859375 391.0859375 C-24.17082009 379.25939928 -31.95247876 364.37183634 -35.984375 348.5859375 C-36.16086694 347.98319228 -36.33735889 347.38044707 -36.51919907 346.75943685 C-37.0757957 344.1587812 -37.11368635 341.76360838 -37.11859608 339.10291672 C-37.12305392 337.98171613 -37.12751176 336.86051555 -37.13210469 335.70533919 C-37.13192033 334.47345311 -37.13173597 333.24156703 -37.13154602 331.97235107 C-37.13522271 330.66375759 -37.1388994 329.35516411 -37.1426875 328.00691628 C-37.15269987 324.37149186 -37.15642305 320.73608395 -37.15907681 317.10064769 C-37.16298205 313.1809575 -37.17256014 309.26128036 -37.18128967 305.34159851 C-37.2010464 295.87485113 -37.21111864 286.40810269 -37.22001746 276.94133985 C-37.22440108 272.4833967 -37.22976765 268.02545473 -37.23500633 263.56751251 C-37.25201674 248.74911114 -37.26651151 233.93071051 -37.27375507 219.11230087 C-37.27566496 215.26741281 -37.2775853 211.42252476 -37.27954102 207.57763672 C-37.28002476 206.62200987 -37.2805085 205.66638301 -37.2810069 204.68179777 C-37.28930949 189.1968555 -37.31465112 173.71199042 -37.34712169 158.22708187 C-37.38018513 142.32990059 -37.39820313 126.43275857 -37.40139931 110.53554273 C-37.40356492 101.60944916 -37.41232112 92.68346821 -37.43786049 83.75740814 C-37.45955759 76.15669884 -37.46762275 68.55612951 -37.45789371 60.95539275 C-37.4533463 57.0779042 -37.45526062 53.20070454 -37.47465515 49.32325554 C-37.49550866 45.11778622 -37.48531047 40.91295867 -37.47212219 36.7074585 C-37.48309144 35.4844953 -37.49406068 34.26153211 -37.50536233 33.00150943 C-37.42832512 22.84199046 -34.53568111 16.25261843 -27.46490479 8.84536743 C-19.37308452 1.47480449 -10.62082253 -0.29386015 0 0 Z M-3.85831898 88.83309954 C-5.27765845 91.04246752 -5.36224532 92.38011332 -5.36748505 95.00048828 C-5.37654169 95.90884398 -5.38559833 96.81719969 -5.39492941 97.75308132 C-5.38960148 98.75237699 -5.38427356 99.75167265 -5.37878418 100.78125 C-5.38487528 101.84185922 -5.39096639 102.90246843 -5.39724207 103.99521732 C-5.41395819 107.56723133 -5.40908382 111.1388922 -5.40429688 114.7109375 C-5.41163248 117.26493198 -5.42021721 119.81892313 -5.42996216 122.37290955 C-5.44992991 128.60264639 -5.45555524 134.83225225 -5.45377427 141.06201679 C-5.45246724 146.12860578 -5.4562678 151.19516574 -5.46369934 156.26174927 C-5.46579855 157.72064304 -5.46789615 159.17953682 -5.46999216 160.6384306 C-5.47103569 161.36457888 -5.47207922 162.09072716 -5.47315437 162.83887994 C-5.49207037 176.58282122 -5.49100331 190.32670918 -5.48418504 204.07065809 C-5.4786172 216.63081439 -5.49940005 229.19076622 -5.53254551 241.75087476 C-5.56632685 254.65239201 -5.58144474 267.55381148 -5.57682848 280.45537376 C-5.57458715 287.69648027 -5.57977643 294.93739814 -5.60472107 302.1784668 C-5.62800091 308.99440429 -5.62509724 315.80991121 -5.60479355 322.6258564 C-5.60138547 325.12393079 -5.60646373 327.62203379 -5.62077713 330.1200695 C-5.63900933 333.53878992 -5.62618865 336.95607772 -5.60583496 340.37475586 C-5.61835281 341.35620575 -5.63087066 342.33765564 -5.64376783 343.34884644 C-5.51744468 353.29194973 -1.70167217 361.63169057 5.15234375 368.80859375 C18.67981805 381.71215938 33.93677863 381.17145985 51.62353516 381.10351562 C54.00166755 381.10894303 56.37979659 381.11606915 58.75791931 381.12475586 C65.18545367 381.14291631 71.61272983 381.13595218 78.04026842 381.12323952 C82.06049983 381.1161031 86.08069863 381.11747887 90.10093307 381.12120056 C91.10514627 381.12211996 91.10514627 381.12211996 92.12964659 381.12305793 C93.49007462 381.12433696 94.85050263 381.12563381 96.21093063 381.1269483 C108.93534851 381.13832525 121.65965068 381.12528497 134.38404958 381.10374683 C145.28245807 381.08587022 156.18069613 381.08899013 167.07910156 381.10742188 C179.76421547 381.1288656 192.44922831 381.13723549 205.13435781 381.12497282 C206.48888801 381.12369874 207.84341823 381.12244126 209.19794846 381.12120056 C210.19739264 381.12027491 210.19739264 381.12027491 211.21702761 381.11933056 C215.89382669 381.11588874 220.57054182 381.12187795 225.24733353 381.13111877 C231.54957538 381.14270288 237.85149637 381.13460431 244.15370369 381.11154175 C246.46149603 381.10626885 248.76931554 381.10774399 251.07709694 381.11659241 C267.14719699 381.73036343 267.14719699 381.73036343 282.015625 376.5859375 C287.20952863 371.42278874 288.13131124 366.21235244 288.1574707 359.02050781 C288.16450516 357.92877258 288.17153961 356.83703735 288.17878723 355.71221924 C288.18503365 353.95588165 288.18503365 353.95588165 288.19140625 352.1640625 C288.21460585 349.66926241 288.23872324 347.17447071 288.26367188 344.6796875 C288.29875341 340.7584064 288.32811987 336.83743445 288.34155273 332.91601562 C288.35707699 329.12331998 288.39731629 325.3315199 288.44140625 321.5390625 C288.43949783 320.3762677 288.43758942 319.2134729 288.43562317 318.01544189 C288.57827909 308.46224327 291.14469146 301.01660401 297.03515625 293.4453125 C303.03243301 287.81473314 311.54190539 284.47175117 319.67700195 284.4440918 C320.83863358 284.43705734 322.0002652 284.43002289 323.19709778 284.42277527 C324.45334457 284.41861099 325.70959137 284.41444672 327.00390625 284.41015625 C328.97664652 284.39289882 330.94938691 284.3756178 332.92211437 284.35695362 C337.78813484 284.3114127 342.65404171 284.27363984 347.52026367 284.26000977 C350.24964971 284.25186459 352.97857812 284.23326647 355.70780945 284.20307922 C358.2775197 284.17494944 360.84745141 284.16201638 363.41731262 284.16593933 C372.05909842 284.11924362 372.05909842 284.11924362 379.015625 279.5859375 C382.12704096 275.44664006 382.43789683 271.90435305 382.37638855 266.88542175 C382.37895182 266.11752534 382.3815151 265.34962892 382.38415605 264.55846292 C382.38909114 261.98952555 382.37260583 259.421178 382.35620117 256.85229492 C382.35535484 255.00921645 382.35583016 253.16613697 382.35752869 251.32305908 C382.35838982 246.32135999 382.34074482 241.3198765 382.31980681 236.31822753 C382.3010598 231.09052481 382.29929113 225.86281721 382.29573059 220.63508606 C382.28640433 210.73644202 382.26178264 200.83789731 382.23168212 190.93929702 C382.19815624 179.66976014 382.18165665 168.40021853 382.16659582 157.1306442 C382.13523363 133.94902022 382.08246178 110.76748442 382.015625 87.5859375 C333.147371 87.51732858 284.27912185 87.46443783 235.4108292 87.43274151 C229.64652603 87.42898922 223.88222295 87.42510627 218.11791992 87.42114258 C216.39650621 87.41996218 216.39650621 87.41996218 214.64031646 87.41875794 C196.03813183 87.4056903 177.4359749 87.38202901 158.83380672 87.35447911 C139.75805463 87.32646265 120.68231709 87.30976922 101.60654527 87.30367202 C89.82790442 87.29954776 78.04934187 87.28650373 66.27072511 87.2621881 C58.2027844 87.24637727 50.13488439 87.24152654 42.0669293 87.24543337 C37.40636563 87.24736219 32.74593914 87.24432594 28.08539963 87.22832108 C23.82364539 87.2137919 19.56212143 87.21293931 15.3003569 87.22324082 C13.75387577 87.22451522 12.20738064 87.2206506 10.66092732 87.21128795 C8.5676115 87.19934547 6.4751401 87.20567701 4.3818388 87.21679401 C3.21647711 87.21565485 2.05111541 87.21451569 0.85043973 87.21334201 C-1.95963784 87.3708077 -1.95963784 87.3708077 -3.85831898 88.83309954 Z " fill="#375bd1ff" transform="translate(322.984375,361.4140625)"/>
<path d="M0 0 C4.21293013 1.45130467 8.45651379 2.7584466 12.734375 4.00390625 C13.41282471 4.20145508 14.09127441 4.39900391 14.7902832 4.60253906 C18.84940863 5.77614859 22.91476824 6.92753384 26.98046875 8.078125 C27.92559326 8.34625 28.87071777 8.614375 29.84448242 8.890625 C31.68889319 9.41300366 33.53407661 9.93266414 35.38012695 10.44921875 C39.50032359 11.61349388 43.464746 12.85625149 47.421875 14.50390625 C49.29069313 15.10675081 51.1664541 15.68829152 53.046875 16.25390625 C56.99453388 17.45111058 60.93515718 18.66200621 64.86328125 19.921875 C72.51440337 22.37358493 80.15944196 24.74154768 87.921875 26.81640625 C96.93576612 29.23984651 105.7570366 32.20785298 114.59375 35.20629883 C123.87015181 38.35197521 133.20486687 41.26145313 142.59765625 44.0390625 C154.38279044 47.5305739 166.04404206 51.33741101 177.671875 55.31640625 C178.74134872 55.68017868 178.74134872 55.68017868 179.83242798 56.05130005 C181.86920048 56.74537567 183.90368476 57.44574992 185.9375 58.1484375 C187.11602539 58.55425049 188.29455078 58.96006348 189.50878906 59.37817383 C192.421875 60.50390625 192.421875 60.50390625 195.421875 62.50390625 C195.421875 63.82390625 195.421875 65.14390625 195.421875 66.50390625 C185.21405846 70.43944998 174.96039745 74.03349968 164.484375 77.19140625 C154.00778269 80.35569782 143.61035418 83.71470443 133.234375 87.19140625 C132.48949829 87.44094055 131.74462158 87.69047485 130.97717285 87.9475708 C127.89422464 88.98093213 124.81160125 90.01525388 121.72943115 91.05093384 C113.09636001 93.95170493 104.4555877 96.8292868 95.81478882 99.7069397 C91.73174304 101.06689261 87.64908439 102.42800643 83.56640625 103.7890625 C82.19507035 104.24618111 80.82373254 104.70329399 79.45239258 105.16040039 C78.83172252 105.36733646 78.21105246 105.57427254 77.57157421 105.7874794 C76.1773091 106.25214393 74.78293746 106.71648898 73.38844013 107.18045616 C67.94305104 108.99308145 62.50323834 110.82177558 57.06591797 112.65844727 C55.22891567 113.27862004 53.3919099 113.89878255 51.55490112 114.51893616 C50.59504177 114.84303026 49.63518242 115.16712437 48.64623642 115.50103951 C42.45099457 117.59253462 36.25515468 119.68225765 30.05944633 121.77237034 C24.62676688 123.60519013 19.19428513 125.43859198 13.76220703 127.27319336 C8.48738369 129.0546457 3.21202952 130.83451785 -2.06368637 132.61332512 C-4.06767899 133.28932625 -6.07147818 133.96590106 -8.07507706 134.64306831 C-10.87653302 135.58980052 -13.67866393 136.53450883 -16.48095703 137.47875977 C-17.30191864 137.75672897 -18.12288025 138.03469818 -18.96871948 138.3210907 C-31.22568986 142.44406455 -42.11549312 144.42990747 -54.80859375 140.57421875 C-55.87461571 140.25053062 -55.87461571 140.25053062 -56.96217346 139.92030334 C-68.40643072 136.38932829 -79.73084162 132.47090945 -91.06544876 128.60599136 C-93.03667745 127.93423195 -95.00836095 127.26382445 -96.98019409 126.59384155 C-116.02114721 120.12361565 -135.0170616 113.53629506 -153.96044922 106.78564453 C-163.8109889 103.29560989 -173.6970998 99.9064158 -183.578125 96.50390625 C-183.578125 92.21390625 -183.578125 87.92390625 -183.578125 83.50390625 C-177.70764058 81.46433058 -171.93041871 79.77954259 -165.85546875 78.48828125 C-165.04484482 78.31171997 -164.23422089 78.13515869 -163.39903259 77.95324707 C-160.77220649 77.38218365 -158.14395184 76.81801806 -155.515625 76.25390625 C-153.67779118 75.85563183 -151.84006444 75.45686303 -150.00244141 75.05761719 C-146.2926576 74.25221322 -142.58235357 73.44927798 -138.87158203 72.6484375 C-132.05510518 71.17633596 -125.24346221 69.68237665 -118.43188477 68.18780518 C-107.87925502 65.87384327 -97.32410283 63.57121686 -86.76586914 61.28295898 C-82.00065062 60.25010162 -77.23740445 59.20911403 -72.4765625 58.15625 C-63.6855071 56.21769522 -54.9288843 54.29031889 -46.03125 52.8984375 C-43.49087146 52.48987344 -40.97323103 52.02298469 -38.453125 51.50390625 C-37.74929688 51.35953125 -37.04546875 51.21515625 -36.3203125 51.06640625 C-34.34527844 50.57482145 -34.34527844 50.57482145 -32.578125 48.50390625 C-32.24479167 46.00390625 -32.24479167 46.00390625 -32.578125 43.50390625 C-34.35844759 41.2798632 -34.35844759 41.2798632 -36.70410156 41.38232422 C-46.76383652 42.25113566 -56.48909923 44.44944283 -66.328125 46.62890625 C-68.20826963 47.03964579 -70.08856148 47.44971197 -71.96899414 47.85913086 C-75.74278905 48.68203311 -79.51560393 49.50921337 -83.28759766 50.34033203 C-87.92778206 51.36233888 -92.57056464 52.37178957 -97.21484375 53.375 C-112.53244608 56.68942463 -127.8171452 60.13571856 -143.08911133 63.65332031 C-152.50346782 65.819038 -161.92844584 67.92196325 -171.39086914 69.86962891 C-183.46862526 72.08289221 -183.46862526 72.08289221 -192.578125 79.50390625 C-193.2626472 82.56624242 -193.43668344 85.34504481 -193.578125 88.50390625 C-190.608125 88.83390625 -187.638125 89.16390625 -184.578125 89.50390625 C-184.55234375 90.90125 -184.5265625 92.29859375 -184.5 93.73828125 C-184.44371716 95.57685408 -184.38636986 97.41539453 -184.328125 99.25390625 C-184.31394531 100.17429687 -184.29976563 101.0946875 -184.28515625 102.04296875 C-184.21218673 107.4394099 -184.21218673 107.4394099 -181.52734375 111.921875 C-180.88410156 112.44394531 -180.24085938 112.96601563 -179.578125 113.50390625 C-179.64057032 117.0632893 -179.82049052 119.47076832 -181.953125 122.37890625 C-183.578125 123.50390625 -183.578125 123.50390625 -186.578125 124.50390625 C-186.17110352 124.89175293 -185.76408203 125.27959961 -185.34472656 125.67919922 C-180.58878063 130.62795377 -179.32126565 134.94212164 -178.328125 141.62890625 C-178.09464355 143.021698 -178.09464355 143.021698 -177.85644531 144.44262695 C-177.55024172 146.28803317 -177.25403746 148.13513151 -176.96875 149.98388672 C-176.63584364 152.13154887 -176.26697261 154.27358549 -175.890625 156.4140625 C-174.78918791 162.8314633 -174.31367372 168.99546637 -174.578125 175.50390625 C-182.56303812 180.23570662 -190.74911747 180.77163794 -199.80859375 179.08984375 C-201.453125 178.37890625 -201.453125 178.37890625 -203.578125 175.50390625 C-205.37178301 166.49222125 -203.0276763 156.471648 -201.765625 147.50390625 C-201.5183667 145.73164673 -201.5183667 145.73164673 -201.26611328 143.92358398 C-200.06156329 136.00239535 -198.74131044 130.02952078 -192.578125 124.50390625 C-193.568125 123.80265625 -194.558125 123.10140625 -195.578125 122.37890625 C-198.04659694 120.30819756 -198.51712644 119.79669934 -199.203125 116.50390625 C-198.578125 113.50390625 -198.578125 113.50390625 -196.5859375 111.3359375 C-193.9223247 107.57889611 -193.91653341 104.6881793 -193.828125 100.19140625 C-193.78365234 99.08055664 -193.78365234 99.08055664 -193.73828125 97.94726562 C-193.66806655 96.13338579 -193.62077452 94.31864347 -193.578125 92.50390625 C-194.61195313 92.42527344 -195.64578125 92.34664063 -196.7109375 92.265625 C-203.16937208 91.45300247 -209.27315859 89.28791947 -215.453125 87.31640625 C-216.75799588 86.90547284 -218.0630102 86.49499468 -219.36816406 86.08496094 C-227.08512058 83.65267721 -234.77281343 81.13893954 -242.43481445 78.5390625 C-247.469347 76.84080966 -252.53841276 75.29816141 -257.640625 73.81640625 C-274.0248657 69.05716555 -274.0248657 69.05716555 -276.578125 66.50390625 C-276.578125 65.18390625 -276.578125 63.86390625 -276.578125 62.50390625 C-270.76399418 59.94683152 -264.86226845 57.94228574 -258.7578125 56.203125 C-252.84390763 54.49072535 -246.96496437 52.69957339 -241.11328125 50.78515625 C-240.41527908 50.55696701 -239.71727692 50.32877777 -238.99812317 50.09367371 C-236.17378853 49.16796777 -233.35071466 48.23849604 -230.52856445 47.30615234 C-222.57957881 44.68435585 -214.62582974 42.19663363 -206.546875 40.00390625 C-198.65459458 37.85782761 -190.91434762 35.38141827 -183.17532349 32.74023438 C-179.33211698 31.42993062 -175.48271859 30.13812051 -171.6328125 28.84765625 C-170.8267305 28.57743652 -170.0206485 28.3072168 -169.19013977 28.02880859 C-159.37343922 24.75040435 -149.50883443 21.62312209 -139.640625 18.50390625 C-138.77766815 18.2308667 -137.9147113 17.95782715 -137.02560425 17.67651367 C-128.26217757 14.90533387 -119.49215203 12.15786996 -110.7043457 9.46484375 C-107.28570452 8.41402206 -103.87111359 7.35069349 -100.45703125 6.28515625 C-99.25369141 5.91003906 -98.05035156 5.53492188 -96.81054688 5.1484375 C-94.36749204 4.38652684 -91.92478219 3.62350909 -89.48242188 2.859375 C-82.27608099 0.6153459 -75.05130814 -1.52920427 -67.78173828 -3.55957031 C-64.45100538 -4.53325507 -61.17653364 -5.63155422 -57.890625 -6.74609375 C-38.16586435 -12.29988111 -18.70550613 -6.47186167 0 0 Z " fill="#1a3d7eff" transform="translate(552.578125,174.49609375)"/>
<path d="M0 0 C-0.37638294 7.81319065 -1.36059755 15.17520693 -3.11328125 22.79296875 C-4.52245102 29.17961276 -5.46154493 35.66213312 -6.46606445 42.12231445 C-7.23343185 46.92084439 -8.11418717 51.61302915 -9.35546875 56.3125 C-11.60578238 65.01606414 -13.10763041 73.8754283 -14.73123169 82.71240234 C-15.71357726 88.05720397 -16.708101 93.39973382 -17.703125 98.7421875 C-17.89906754 99.79508972 -18.09501007 100.84799194 -18.29689026 101.93280029 C-20.73244409 114.98173291 -23.33699154 127.99572172 -26 141 C-30.19625909 139.36221955 -32.98676785 136.26676818 -36.078125 133.1171875 C-36.64956238 132.54292023 -37.22099976 131.96865295 -37.80975342 131.37698364 C-39.62792945 129.5476419 -41.43901492 127.71145807 -43.25 125.875 C-44.48391329 124.63105226 -45.71828322 123.3875573 -46.953125 122.14453125 C-49.97406743 119.10157633 -52.98867092 116.05246746 -56 113 C-59.11569045 115.99751933 -61.79673986 118.88680367 -64.12890625 122.52734375 C-64.68296143 123.39061279 -65.2370166 124.25388184 -65.80786133 125.14331055 C-66.38689209 126.06539307 -66.96592285 126.98747559 -67.5625 127.9375 C-68.17311279 128.90534424 -68.78372559 129.87318848 -69.4128418 130.87036133 C-89.85489057 163.64068469 -105.16011161 198.353354 -112.3125 236.4375 C-112.47202148 237.27603516 -112.63154297 238.11457031 -112.79589844 238.97851562 C-117.26111334 264.38982694 -116.63328217 291.96278062 -112.25 317.3125 C-112.1236618 318.04705414 -111.99732361 318.78160828 -111.86715698 319.53842163 C-103.51972123 367.05803967 -80.21432957 408.55227991 -48.41845703 444.37597656 C-47.05865658 445.93284276 -45.74233481 447.51733185 -44.43359375 449.1171875 C-22.20309641 475.45122768 7.89065043 496.10092626 37 514 C33.34986577 515.21671141 32.42689101 514.67408709 28.8984375 513.33203125 C27.86332031 512.93951172 26.82820312 512.54699219 25.76171875 512.14257812 C24.64410156 511.70365234 23.52648437 511.26472656 22.375 510.8125 C21.21871094 510.36197266 20.06242188 509.91144531 18.87109375 509.44726562 C6.610379 504.58158567 -5.2549791 498.9947902 -17 493 C-17.81903809 492.58282715 -18.63807617 492.1656543 -19.48193359 491.73583984 C-41.54112569 480.34969865 -62.11923877 465.59244924 -80.20703125 448.60546875 C-82.74003454 446.24251323 -85.32595905 443.96261055 -87.9375 441.6875 C-99.13538715 431.58078077 -108.58257051 420.13193469 -117.51269531 408.01367188 C-118.86684983 406.18027291 -120.2391652 404.36234788 -121.6171875 402.546875 C-144.28564443 372.26701326 -159.98927857 335.06514998 -167 298 C-167.19319824 297.01966797 -167.38639648 296.03933594 -167.58544922 295.02929688 C-173.35591048 264.74968464 -172.96071282 233.19842076 -167 203 C-166.73018722 201.47033057 -166.46182584 199.94040399 -166.1953125 198.41015625 C-158.29580617 155.99461399 -136.92230972 113.32400812 -109.01171875 80.6640625 C-108.67785156 80.11492187 -108.34398437 79.56578125 -108 79 C-108.7304706 75.68237247 -108.7304706 75.68237247 -112.17114258 74.23828125 C-113.57417665 73.58601139 -114.9823947 72.94482188 -116.39453125 72.3125 C-117.13829514 71.96872314 -117.88205902 71.62494629 -118.64836121 71.27075195 C-121.03201165 70.17062241 -123.42172709 69.08455354 -125.8125 68 C-128.19160517 66.91353636 -130.56924082 65.82408696 -132.94450378 64.72924805 C-134.42343381 64.04829611 -135.90472916 63.37245187 -137.3886261 62.70239258 C-140.88759058 61.09844143 -144.04307292 59.48120394 -147 57 C-145.23063117 56.24655149 -143.4593969 55.49748383 -141.6875 54.75 C-140.70136719 54.33234375 -139.71523437 53.9146875 -138.69921875 53.484375 C-135.84888722 52.34063056 -133.00284067 51.26989563 -130.11328125 50.234375 C-123.30141389 47.77618189 -116.57727108 45.1033143 -109.84729004 42.43157959 C-105.67577653 40.7760122 -101.50179811 39.12667622 -97.328125 37.4765625 C-95.98243439 36.94435593 -95.98243439 36.94435593 -94.60955811 36.40139771 C-68.07394065 25.91010665 -41.52399739 15.45043651 -14.875 5.25 C-14.15300415 4.97315369 -13.4310083 4.69630737 -12.68713379 4.41107178 C-10.70626244 3.65219935 -8.72446449 2.89581687 -6.7421875 2.140625 C-5.10032471 1.51462402 -5.10032471 1.51462402 -3.42529297 0.87597656 C-1 0 -1 0 0 0 Z " fill="#2b7df7ff" transform="translate(273,271)"/>
<path d="M0 0 C28.30953097 11.01560378 55.60435936 25.53776468 79 45 C79.79881592 45.65452148 79.79881592 45.65452148 80.61376953 46.32226562 C91.76431938 55.45928675 103.20450656 64.99117206 112.421875 76.1171875 C113.5568709 77.47131627 114.74065284 78.78509201 115.953125 80.0703125 C138.28997477 103.77308473 155.1040442 134.45170211 166 165 C166.40605469 166.06605469 166.81210937 167.13210938 167.23046875 168.23046875 C178.04991271 197.15999736 182.58525303 227.96871001 182.33618164 258.75683594 C182.31234476 261.89544047 182.31569019 265.03320104 182.32226562 268.171875 C182.30098953 283.92050257 181.2106329 299.27960941 178.125 314.75 C177.9499292 315.63719727 177.7748584 316.52439453 177.59448242 317.43847656 C170.23202092 353.81769812 153.80806089 385.99699606 133.05639648 416.39038086 C131.93902115 418.02455983 131.93902115 418.02455983 131 420 C132.17820312 420.35835937 133.35640625 420.71671875 134.5703125 421.0859375 C141.55304429 423.41351476 148.18769494 426.57296434 154.875 429.625 C156.8516126 430.52319743 158.82879134 431.42011772 160.80667114 432.31552124 C162.58561698 433.1214453 164.36292407 433.93098375 166.14013672 434.74072266 C168.98827518 436.04770106 168.98827518 436.04770106 172 437 C172 437.66 172 438.32 172 439 C170.91332031 439.40347656 169.82664062 439.80695313 168.70703125 440.22265625 C155.21857211 445.27687308 141.8744387 450.66609894 128.53393555 456.0949707 C126.90285109 456.75867315 125.27174752 457.42232862 123.640625 458.0859375 C122.82962845 458.41589218 122.0186319 458.74584686 121.18305969 459.08580017 C113.17679966 462.34010742 105.15246062 465.54842938 97.125 468.75 C80.66611588 475.31653144 64.2370381 481.95619525 47.81103516 488.60449219 C46.34883797 489.19624741 46.34883797 489.19624741 44.85710144 489.79995728 C43.03971838 490.53555001 41.22241983 491.27135159 39.40522766 492.00741577 C37.76070476 492.67317187 36.11570729 493.33775717 34.47018433 494.0010376 C32.71942797 494.70905754 30.97106043 495.42299755 29.22439575 496.14105225 C28.32478119 496.50813293 27.42516663 496.87521362 26.49829102 497.25341797 C25.68385025 497.58808075 24.86940948 497.92274353 24.0302887 498.26754761 C22 499 22 499 20 499 C24.15909348 473.61080717 28.54388668 448.27656397 33.32421875 422.99609375 C35.84505987 409.61781424 38.2159725 396.21128154 40.625 382.8125 C41.49879923 377.95306501 42.37299067 373.093701 43.24793625 368.23447227 C43.59453974 366.30855355 43.94054087 364.38252646 44.28652954 362.45649719 C44.49699921 361.28725204 44.70746887 360.1180069 44.92431641 358.91333008 C45.20053329 357.37688591 45.20053329 357.37688591 45.48233032 355.80940247 C45.96302833 353.20064593 46.47193388 350.59953685 47 348 C49 348 49 348 50.4453125 349.43359375 C50.99960937 350.09488281 51.55390625 350.75617188 52.125 351.4375 C52.74375 352.16453125 53.3625 352.8915625 54 353.640625 C54.66 354.41921875 55.32 355.1978125 56 356 C60.2032722 360.80828865 64.4235327 365.54087802 69 370 C70.2529696 371.22613942 71.50280672 372.45548554 72.75 373.6875 C73.63945313 374.55955078 73.63945313 374.55955078 74.546875 375.44921875 C76 377 76 377 77 379 C80.76214205 377.74595265 81.11039334 376.61951417 83.07421875 373.25 C83.6554248 372.25774414 84.23663086 371.26548828 84.83544922 370.24316406 C85.75221436 368.63779785 85.75221436 368.63779785 86.6875 367 C87.31672363 365.90655273 87.94594727 364.81310547 88.59423828 363.68652344 C93.54836353 354.98391724 98.08709839 346.21626958 102 337 C102.50587646 335.80963135 102.50587646 335.80963135 103.02197266 334.59521484 C107.6542687 323.57884246 111.73572934 312.49547168 115 301 C115.24492188 300.14083984 115.48984375 299.28167969 115.7421875 298.39648438 C117.56737636 291.94959203 119.31404476 285.48464065 121 279 C121.32226562 277.76507812 121.64453125 276.53015625 121.9765625 275.2578125 C126.20190184 257.46017104 126.44517714 238.7094091 126.4375 220.5 C126.43790283 219.50552856 126.43830566 218.51105713 126.4387207 217.4864502 C126.27479171 146.73413249 91.59430844 85.42838027 43 36 C33.55465493 26.61660045 23.25424349 18.39830298 12.58984375 10.453125 C12.04787354 10.04924561 11.50590332 9.64536621 10.94750977 9.22924805 C9.47694252 8.13813784 8.00040297 7.05508985 6.5234375 5.97265625 C4.15407774 4.12044777 2.07257278 2.17474186 0 0 Z " fill="#2b7df7ff" transform="translate(742,264)"/>
<path d="M0 0 C0 18.81 0 37.62 0 57 C-6.93 57.99 -13.86 58.98 -21 60 C-25.52320059 60.9985645 -29.92328883 62.0236584 -34.375 63.25 C-35.51018066 63.55373535 -36.64536133 63.8574707 -37.81494141 64.17041016 C-47.91903631 66.90555465 -57.93549747 69.90734946 -67.92285156 73.0390625 C-71.25489136 74.07959794 -74.5918155 75.1033337 -77.9296875 76.125 C-91.47103829 80.28135524 -104.94817466 84.57341246 -118.34667969 89.16943359 C-119.39629883 89.52602051 -120.44591797 89.88260742 -121.52734375 90.25 C-122.44249756 90.56453125 -123.35765137 90.8790625 -124.30053711 91.203125 C-134.62518211 94.25093555 -142.75268111 93.39607688 -152.69116211 89.63110352 C-160.32866279 86.76982772 -168.13208373 84.64458531 -176.00610352 82.53686523 C-181.92890831 80.93224854 -187.66105509 79.0847651 -193.40869141 76.9375 C-197.30269436 75.528703 -201.25986316 74.41286229 -205.25 73.3125 C-211.70958336 71.50601648 -218.1568219 69.66620421 -224.5859375 67.75390625 C-226.60254164 67.15725902 -228.619308 66.56116288 -230.6361084 65.96517944 C-232.54953706 65.39739271 -234.46085213 64.82249798 -236.37207031 64.24731445 C-246.56286821 61.24464482 -256.50248212 59.21000376 -267 57 C-267 38.85 -267 20.7 -267 2 C-255.75749465 4.24850107 -255.75749465 4.24850107 -251.65234375 5.84765625 C-250.73090576 6.20085937 -249.80946777 6.5540625 -248.86010742 6.91796875 C-247.89564697 7.29566406 -246.93118652 7.67335938 -245.9375 8.0625 C-243.80780892 8.87765477 -241.67758344 9.69141447 -239.546875 10.50390625 C-237.91975586 11.12676514 -237.91975586 11.12676514 -236.25976562 11.76220703 C-221.27077521 17.4538024 -206.12536444 22.67414454 -190.89770508 27.68652344 C-183.6709061 30.07573825 -176.51186655 32.60524993 -169.375 35.25 C-162.85659239 37.64832648 -156.32966306 39.9656241 -149.6875 42 C-149.0363623 42.20786133 -148.38522461 42.41572266 -147.71435547 42.62988281 C-138.62738763 45.31066744 -130.9722056 43.82212875 -122.0625 41.25 C-120.67514648 40.87101562 -120.67514648 40.87101562 -119.25976562 40.484375 C-114.82845985 39.24224304 -110.56443148 37.84601479 -106.29931641 36.11523438 C-101.17031732 34.03933765 -95.98144808 32.21724634 -90.73828125 30.453125 C-89.76900696 30.12447449 -88.79973267 29.79582397 -87.80108643 29.45721436 C-84.63906188 28.38565087 -81.47578572 27.31783405 -78.3125 26.25 C-76.10593878 25.50289837 -73.89947862 24.75549817 -71.69311523 24.0078125 C-67.11540692 22.45668973 -62.53730665 20.90673142 -57.95898438 19.35742188 C-47.86081299 15.93850092 -37.76940941 12.49970792 -27.67782593 9.06140137 C-22.72421575 7.37369076 -17.77033364 5.68677922 -12.81640625 4 C-11.53555145 3.5637027 -11.53555145 3.5637027 -10.2288208 3.11859131 C-9.44762878 2.85258118 -8.66643677 2.58657104 -7.86157227 2.3125 C-7.18409439 2.08175781 -6.50661652 1.85101563 -5.80860901 1.61328125 C-1.05093053 0 -1.05093053 0 0 0 Z " fill="#4a2bf8ff" transform="translate(649,287)"/>
<path d="M0 0 C8.47790747 0.01336272 16.9557891 0.01569888 25.43370569 0.01505023 C35.77681786 0.01436687 46.11991523 0.02133686 56.46302283 0.03049684 C59.36554108 0.03258948 62.26805681 0.03333251 65.17057574 0.03373575 C97.03142193 0.04231566 128.81471609 0.56842177 160.6215111 2.57559633 C161.66639697 2.63995882 162.71128283 2.70432131 163.7878319 2.77063417 C177.90888817 3.64154514 192.02051773 4.61098661 206.1215111 5.76309633 C206.84578295 5.821084 207.5700548 5.87907167 208.31627429 5.93881655 C231.73621135 7.83528526 231.73621135 7.83528526 237.7465111 11.20059633 C237.7465111 11.86059633 237.7465111 12.52059633 237.7465111 13.20059633 C230.81592194 15.51766645 224.13012282 16.92081877 216.8715111 17.70059633 C215.76243395 17.82168764 214.6533568 17.94277895 213.51067126 18.06753969 C112.97005724 28.49770493 9.86334073 26.60554756 -90.9934181 22.3366437 C-94.18030676 22.20365033 -97.36740251 22.07915249 -100.55475843 21.95792055 C-119.70742248 21.22639117 -138.82758834 20.19658954 -157.9409889 18.76309633 C-159.09676435 18.67972521 -159.09676435 18.67972521 -160.2758888 18.59466982 C-187.73770358 16.58096201 -187.73770358 16.58096201 -195.2534889 12.20059633 C-195.2534889 11.21059633 -195.2534889 10.22059633 -195.2534889 9.20059633 C-131.23701506 -2.86702525 -64.8509209 -0.1072659 0 0 Z " fill="#3d3d3da8" transform="translate(552.2534888982773,782.79940366745)"/>
<path d="M0 0 C21.45 0 42.9 0 65 0 C65 20.46 65 40.92 65 62 C43.55 62 22.1 62 0 62 C0 41.54 0 21.08 0 0 Z " fill="#102e66ff" transform="translate(344,647)"/>
<path d="M0 0 C21.45 0 42.9 0 65 0 C65 20.46 65 40.92 65 62 C43.55 62 22.1 62 0 62 C0 41.54 0 21.08 0 0 Z " fill="#1e4794ff" transform="translate(344,560)"/>
<path d="M0 0 C21.45 0 42.9 0 65 0 C65.020625 10.044375 65.04125 20.08875 65.0625 30.4375 C65.071604 33.6130249 65.08070801 36.7885498 65.09008789 40.06030273 C65.09300677 42.55973264 65.09555539 45.05916302 65.09765625 47.55859375 C65.10277222 48.87057739 65.10788818 50.18256104 65.11315918 51.53430176 C65.11334045 53.39182068 65.11334045 53.39182068 65.11352539 55.28686523 C65.115746 56.36830307 65.11796661 57.44974091 65.12025452 58.56394958 C65 61 65 61 64 62 C62.0056827 62.09405142 60.00800457 62.11743249 58.01147461 62.11352539 C56.73022202 62.11344986 55.44896942 62.11337433 54.12889099 62.11329651 C52.72004152 62.10818909 51.31119244 62.10297309 49.90234375 62.09765625 C48.46887766 62.09579202 47.03541093 62.09436814 45.60194397 62.09336853 C41.82240043 62.08954372 38.0428951 62.07971377 34.2633667 62.06866455 C29.73212219 62.0566548 25.20086493 62.05204801 20.66960907 62.04621124 C13.77971278 62.03650198 6.88990038 62.0173452 0 62 C0 41.54 0 21.08 0 0 Z " fill="#6697f1ff" transform="translate(344,474)"/>
<path d="M0 0 C21.12 0 42.24 0 64 0 C64 20.46 64 40.92 64 62 C42.88 62 21.76 62 0 62 C0 41.54 0 21.08 0 0 Z " fill="#366acaff" transform="translate(525,647)"/>
<path d="M0 0 C21.12 0 42.24 0 64 0 C64 20.46 64 40.92 64 62 C42.88 62 21.76 62 0 62 C0 41.54 0 21.08 0 0 Z " fill="#2057bdff" transform="translate(615,474)"/>
<path d="M0 0 C21.12 0 42.24 0 64 0 C64 20.46 64 40.92 64 62 C42.88 62 21.76 62 0 62 C0 41.54 0 21.08 0 0 Z " fill="#3c6dc9ff" transform="translate(525,474)"/>
<path d="M0 0 C21.12 0 42.24 0 64 0 C64 20.13 64 40.26 64 61 C42.88 61 21.76 61 0 61 C0 40.87 0 20.74 0 0 Z " fill="#79a5f7ff" transform="translate(615,561)"/>
<path d="M0 0 C20.79 0 41.58 0 63 0 C63 20.13 63 40.26 63 61 C42.21 61 21.42 61 0 61 C0 40.87 0 20.74 0 0 Z " fill="#4277dbff" transform="translate(435,647)"/>
<path d="M0 0 C20.79 0 41.58 0 63 0 C63 20.13 63 40.26 63 61 C42.21 61 21.42 61 0 61 C0 40.87 0 20.74 0 0 Z " fill="#3569c9ff" transform="translate(525,561)"/>
<path d="M0 0 C20.79 0 41.58 0 63 0 C63 20.13 63 40.26 63 61 C42.21 61 21.42 61 0 61 C0 40.87 0 20.74 0 0 Z " fill="#2057bdff" transform="translate(435,474)"/>
<path d="M0 0 C1.53159584 2.46757108 1.55322025 3.95769831 1.125 6.8125 C-1.18579397 9.85007973 -3.32957213 10.37586425 -7.01171875 11.0234375 C-8.05126709 11.21349365 -9.09081543 11.4035498 -10.16186523 11.59936523 C-11.28407471 11.79344971 -12.40628418 11.98753418 -13.5625 12.1875 C-15.94299557 12.62212764 -18.32319866 13.05835989 -20.703125 13.49609375 C-21.90775391 13.71507324 -23.11238281 13.93405273 -24.35351562 14.15966797 C-29.52187849 15.11780734 -34.66824906 16.17070497 -39.8125 17.25 C-40.79984131 17.45713623 -41.78718262 17.66427246 -42.80444336 17.87768555 C-58.41363472 21.17518874 -73.97442386 24.69028683 -89.52734375 28.2421875 C-93.37235083 29.11998893 -97.2174058 29.99758025 -101.0625 30.875 C-102.0172522 31.09295227 -102.97200439 31.31090454 -103.95568848 31.53546143 C-117.57918325 34.6427217 -131.21193878 37.66382184 -144.91601562 40.39868164 C-146.91340675 40.82061309 -148.89448374 41.31737093 -150.875 41.8125 C-150.875 49.0725 -150.875 56.3325 -150.875 63.8125 C-151.205 63.8125 -151.535 63.8125 -151.875 63.8125 C-151.875 58.5325 -151.875 53.2525 -151.875 47.8125 C-154.845 47.4825 -157.815 47.1525 -160.875 46.8125 C-161.36098131 38.67231308 -161.36098131 38.67231308 -159.25 34.9375 C-153.44052742 29.73955085 -146.73592331 28.79566312 -139.3125 27.4375 C-131.50038206 25.94114345 -123.72766204 24.3867314 -116 22.5 C-90.23263529 16.24292968 -64.34980513 10.554553 -38.38734436 5.16990662 C-33.70601894 4.19795884 -29.02941009 3.20623434 -24.35546875 2.19921875 C-23.24453857 1.96162842 -22.1336084 1.72403809 -20.98901367 1.47924805 C-18.99209971 1.05168458 -16.99607588 0.61992967 -15.0012207 0.18286133 C-3.55150348 -2.24928554 -3.55150348 -2.24928554 0 0 Z " fill="#F7F7F7" transform="translate(519.875,216.1875)"/>
<path d="M0 0 C2.5 1.5 2.5 1.5 4 4 C4.75134462 8.09824341 4.98063275 10.41156292 2.77734375 13.98046875 C-0.9795365 18.43010706 -5.39430677 22.18732767 -9.765625 26.015625 C-15.27530241 30.98528105 -20.39426181 36.3932735 -25.57519531 41.70043945 C-26.37538086 42.512146 -27.17556641 43.32385254 -28 44.16015625 C-28.721875 44.89886963 -29.44375 45.63758301 -30.1875 46.39868164 C-32 48 -32 48 -34 48 C-34.33 48.99 -34.66 49.98 -35 51 C-38.78795813 53.52530542 -40.50668156 53.57582442 -45 53 C-47.50327471 51.44861304 -49.45356731 49.47893065 -51.5 47.375 C-52.62934606 46.26995141 -53.75954677 45.16577555 -54.890625 44.0625 C-55.42494141 43.53140625 -55.95925781 43.0003125 -56.50976562 42.453125 C-58.34582077 40.66279075 -60.27376038 39.00825589 -62.25 37.375 C-65.80344009 34.30611992 -65.93171993 33.84667287 -66.3125 29.125 C-66.25340627 26.17031347 -66.06564964 25.10941607 -64.5 22.5 C-61.74721203 20.84832722 -59.52692092 20.14211475 -56.29296875 20.26953125 C-52.08713347 21.60937997 -49.28152933 24.78749846 -46.19921875 27.8359375 C-43.99954073 30.13623504 -43.99954073 30.13623504 -41 32 C-40.0713916 31.06615479 -39.1427832 30.13230957 -38.18603516 29.17016602 C-34.74829329 25.71435806 -31.30727079 22.26183285 -27.86523438 18.81030273 C-26.37442402 17.31445586 -24.88451138 15.81771376 -23.39550781 14.32006836 C-21.25820111 12.17066638 -19.1177132 10.02447815 -16.9765625 7.87890625 C-15.97491562 6.86951744 -15.97491562 6.86951744 -14.95303345 5.83973694 C-14.02229507 4.90888527 -14.02229507 4.90888527 -13.07275391 3.95922852 C-12.52648346 3.41073746 -11.98021301 2.8622464 -11.41738892 2.2971344 C-8.11901078 -0.7214018 -4.23753359 -0.57784549 0 0 Z " fill="#127bf3ff" transform="translate(501,565)"/>
<path d="M0 0 C0 0.33 0 0.66 0 1 C23.265 1.495 23.265 1.495 47 2 C47 2.33 47 2.66 47 3 C2.45 3 -42.1 3 -88 3 C-88 2.67 -88 2.34 -88 2 C-87.08846664 1.98969254 -86.17693329 1.97938507 -85.23777771 1.96876526 C-76.63095274 1.87062804 -68.0241937 1.7680911 -59.41747952 1.66066074 C-54.99310631 1.60558892 -50.56872633 1.55219491 -46.14428711 1.50268555 C-41.87133886 1.45480879 -37.59846631 1.4024591 -33.32560921 1.34705925 C-31.69862831 1.32674084 -30.07162675 1.30801113 -28.44460869 1.29092598 C-26.158879 1.26664747 -23.87328929 1.23662742 -21.58764648 1.20532227 C-20.28858871 1.18977798 -18.98953094 1.1742337 -17.65110779 1.15821838 C-11.69445139 0.90009055 -5.98965125 -0.12223778 0 0 Z " fill="#4b4b4bff" transform="translate(583,780)"/>
<path d="M0 0 C0.99 0.33 1.98 0.66 3 1 C-1.29 5.29 -5.58 9.58 -10 14 C-10.99 13.67 -11.98 13.34 -13 13 C-8.71 8.71 -4.42 4.42 0 0 Z " fill="#127bf3ff" transform="translate(490,567)"/>
<path d="M0 0 C4.74018901 1.83491188 9.36413251 3.91941459 14 6 C13.01 6.99 12.02 7.98 11 9 C9.16384919 7.69144447 7.33114211 6.37805538 5.5 5.0625 C4.4790625 4.33160156 3.458125 3.60070312 2.40625 2.84765625 C1.6121875 2.23792969 0.818125 1.62820313 0 1 C0 0.67 0 0.34 0 0 Z " fill="#127bf3ff" transform="translate(742,264)"/>
<path d="M0 0 C0.66 0.66 1.32 1.32 2 2 C0.35 3.65 -1.3 5.3 -3 7 C-3.99 6.67 -4.98 6.34 -6 6 C-4.02 4.02 -2.04 2.04 0 0 Z " fill="#127bf3ff" transform="translate(298,368)"/>
<path d="M0 0 C0.99 0.33 1.98 0.66 3 1 C1.35 2.65 -0.3 4.3 -2 6 C-2.99 5.67 -3.98 5.34 -5 5 C-3.35 3.35 -1.7 1.7 0 0 Z " fill="#127bf3ff" transform="translate(474,583)"/>
<path d="M0 0 C0.99 0.33 1.98 0.66 3 1 C0.03 3.475 0.03 3.475 -3 6 C-3.66 5.67 -4.32 5.34 -5 5 C-3.35 3.35 -1.7 1.7 0 0 Z " fill="#127bf3ff" transform="translate(466,591)"/>
</svg>
